<svg xmlns="http://www.w3.org/2000/svg" xmlns:xlink="http://www.w3.org/1999/xlink" viewBox="0,0,256,256" width="30px" height="48px" fill-rule="nonzero"><g transform=""><g fill="green" fill-rule="nonzero" stroke="none" stroke-width="1" stroke-linecap="butt" stroke-linejoin="miter" stroke-miterlimit="10" stroke-dasharray="" stroke-dashoffset="0" font-family="none" font-weight="none" font-size="none" text-anchor="none" style="mix-blend-mode: normal"><g transform="scale(4,4)"><path d="M53.444,17.557c0.927,0.6 1.192,1.838 0.592,2.766l-2.036,3.149v16.758c0,10.92 -0.85,11.77 -11.77,11.77h-16.46c-10.92,0 -11.77,-0.85 -11.77,-11.77v-16.46c0,-10.92 0.85,-11.77 11.77,-11.77h16.46c4.47,0 7.251,0.144 8.978,1.061l-16.41,25.361l-9.021,-10.337c-0.726,-0.831 -1.988,-0.919 -2.822,-0.192c-0.832,0.726 -0.918,1.99 -0.191,2.822l10.765,12.336c0.381,0.437 0.932,0.685 1.507,0.685c0.048,0 0.095,-0.001 0.143,-0.005c0.627,-0.045 1.195,-0.381 1.536,-0.909l15.964,-24.672c0.6,-0.927 1.838,-1.193 2.765,-0.593z"></path></g></g></g></svg>