<svg width="0" height="0" class="hidden">
  <symbol xmlns="http://www.w3.org/2000/svg" viewBox="0 0 512 512" id="whatsapp">
    <path d="m123.832031 475.464844c39.558594 23.804687 84.789063 36.351562 131.261719 36.351562 140.824219 0 256.90625-114.914062 256.90625-255.910156 0-140.832031-115.917969-255.90625-256.90625-255.90625-140.558594 0-254.910156 114.800781-254.910156 255.90625 0 47.09375 12.550781 92.667969 36.351562 132.257812l-36.535156 123.835938zm-93.65625-219.558594c0-124.570312 100.898438-225.917969 224.917969-225.917969 125.121094 0 226.917969 101.347657 226.917969 225.917969 0 124.574219-101.796875 225.917969-226.917969 225.917969-43.054688 0-84.894531-12.195313-120.984375-35.273438l-5.765625-3.683593-83.988281 24.78125 24.777343-83.992188-3.683593-5.761719c-23.078125-36.097656-35.273438-78.277343-35.273438-121.988281zm0 0"></path>
    <path d="m124.628906 208.753906c4.953125 26.011719 19.65625 76.042969 62.464844 118.851563 42.808594 42.808593 92.839844 57.515625 118.855469 62.46875 29.789062 5.671875 73.503906 6.527343 94.867187-14.835938l11.910156-11.910156c6.011719-6.011719 9.324219-14.007813 9.324219-22.511719s-3.3125-16.496094-9.324219-22.507812l-47.628906-47.628906c-6.015625-6.015626-14.007812-9.324219-22.511718-9.324219-8.503907 0-16.496094 3.308593-22.511719 9.324219l-11.90625 11.90625c-7.273438 7.273437-21.003907 7.304687-28.332031.089843l-47.507813-49.5c-.070313-.074219-.140625-.148437-.214844-.21875-7.285156-7.285156-7.285156-19.140625 0-26.425781l11.90625-11.90625c12.445313-12.445312 12.445313-32.582031 0-45.023438l-47.628906-47.628906c-12.410156-12.410156-32.605469-12.410156-45.019531 0l-11.90625 11.910156v-.003906c-17.050782 17.054688-22.734375 53.40625-14.835938 94.875zm36.042969-73.664062c12.5-12.214844 11.832031-12.449219 13.210937-12.449219.472657 0 .945313.179687 1.304688.539063 50.1875 50.457031 48.171875 47.492187 48.171875 48.9375 0 .503906-.183594.945312-.539063 1.304687l-11.910156 11.90625c-18.964844 18.964844-19.039062 49.664063-.121094 68.714844l47.535157 49.53125c.074219.070312.144531.144531.21875.21875 18.960937 18.960937 51.808593 19.023437 70.832031 0l11.90625-11.90625c.71875-.71875 1.890625-.71875 2.609375 0 50.1875 50.453125 48.171875 47.488281 48.171875 48.933593 0 .507813-.183594.945313-.539062 1.304688l-11.910157 11.90625c-8.160156 8.160156-34.152343 13.042969-68.054687 6.585938-22.625-4.3125-66.128906-17.085938-103.257813-54.214844-37.128906-37.128906-49.902343-80.632813-54.210937-103.257813-6.460938-33.902343-1.578125-59.898437 6.582031-68.054687zm0 0"></path>
  </symbol>
  <symbol version="1.1" id="telegram" xmlns="http://www.w3.org/2000/svg" xmlns:xlink="http://www.w3.org/1999/xlink" x="0px" y="0px" xml:space="preserve" viewBox="0 0 69.6 69.6">
    <g>
      <path d="M62.6,5.8C43.2,13.4,23.9,21.2,4.5,28.8c-1.4,0.6-2.8,1.2-2.8,2.9c0,1.9,1.5,2.5,3,3c4.2,1.6,8.4,3.3,12.7,4.8
		c1.4,0.5,2,1.2,2.3,2.6c1.1,4.7,2.4,9.4,3.7,14.1c0.8,3,2.4,3.5,4.9,1.8c2-1.4,4.1-2.8,6-4.4c1.6-1.4,2.7-1.3,4.4-0.1
		c4.3,3.1,8.7,6,13.1,9c3.1,2.1,4.7,1.4,5.5-2.3c0.1-0.3,0.1-0.7,0.2-1c2.2-11.3,4.3-22.6,6.5-33.9C65,19.6,66.1,13.8,67.2,8
		C67.2,5.6,65.4,4.7,62.6,5.8z M15.9,33.5c-1.4-0.4-2.7-1-4.6-1.8c13.9-5.5,27.4-10.9,40.9-16.3c0.1,0.1,0.1,0.2,0.2,0.4
		C43.3,24.6,34.3,33.3,25.2,42C24.7,36.4,20.3,34.9,15.9,33.5z M26.4,47.6c-0.2-0.7-0.3-1.4-0.6-2.6c2.2,1.5,4.1,2.8,6,4
		C27.7,52.4,27.7,52.4,26.4,47.6z M52.6,56.9c-7-4.7-13.7-9.3-20.7-14c9.5-9.1,18.9-18.2,28.6-27.6C57.8,29.4,55.2,42.9,52.6,56.9z"></path>
    </g>
  </symbol>
  <symbol version="1.1" id="instagram" xmlns="http://www.w3.org/2000/svg" xmlns:xlink="http://www.w3.org/1999/xlink" x="0px" y="0px" xml:space="preserve" viewBox="0 0 69.6 69.6">
    <g>
      <path d="M53.1,12.7c-2.2,0-4.3,1.9-4.3,4.2c-0.1,2.2,2,4.3,4.2,4.3c2.2,0.1,4.3-1.9,4.3-4.2C57.3,14.8,55.4,12.7,53.1,12.7z"></path>
      <path d="M35.5,17.6c-9.1-0.1-16.8,7.4-17,16.7c-0.2,9.2,7.5,17.1,16.8,17.1c9.1,0.1,16.8-7.4,17-16.7
		C52.5,25.5,44.8,17.7,35.5,17.6z M35.5,45.6c-6,0.1-11.1-4.9-11.2-11c-0.1-6,4.9-11.1,11-11.2c6-0.1,11.1,4.9,11.2,11
		C46.6,40.4,41.6,45.5,35.5,45.6z"></path>
      <path d="M68.2,20.4C68.1,9.5,60.4,1.8,49.4,1.7c-9.3-0.1-18.6-0.1-27.9,0C10.4,1.8,2.7,9.4,2.6,20.5c-0.1,9.3-0.1,18.6,0,27.9
		c0.1,11.1,7.8,18.8,18.9,18.8c4.6,0,9.2,0,13.8,0c4.7,0,9.4,0,14.1,0c11-0.1,18.7-7.8,18.8-18.7C68.3,39.2,68.3,29.8,68.2,20.4z
		 M62.4,48.3c-0.1,8-5,13.1-12.9,13.2c-9.5,0.2-19,0.2-28.4,0c-7.7-0.1-12.6-5.2-12.7-12.8c-0.2-9.5-0.2-19,0-28.4
		c0.1-7.7,5.2-12.6,12.8-12.7c9.4-0.2,18.8-0.1,28.2,0c7.9,0.1,12.9,5.2,13,13.1c0.1,4.7,0,9.4,0,14.1
		C62.5,39.2,62.5,43.7,62.4,48.3z"></path>
    </g>
  </symbol>
  <symbol xmlns="http://www.w3.org/2000/svg" viewBox="0 0 32 32" id="message">
    <title></title>
    <g id="Email">
      <path d="M25,4H7A5,5,0,0,0,2,9V23a5,5,0,0,0,5,5H25a5,5,0,0,0,5-5V9A5,5,0,0,0,25,4ZM7,6H25a3,3,0,0,1,2.4,1.22s0,0-.08,0L18,15.79a3,3,0,0,1-4.06,0L4.68,7.26l-.08,0A3,3,0,0,1,7,6ZM25,26H7a3,3,0,0,1-3-3V9.36l8.62,7.9a5,5,0,0,0,6.76,0L28,9.36V23A3,3,0,0,1,25,26Z"></path>
    </g>
  </symbol>
  <symbol version="1.1" id="phone" xmlns="http://www.w3.org/2000/svg" xmlns:xlink="http://www.w3.org/1999/xlink" x="0px" y="0px" xml:space="preserve" viewBox="0 0 32 32">
    <path d="M18.9,18.2c-0.5,0.5-0.9,1.1-1.3,1.8c-2-1.7-3.9-3.5-5.6-5.6c0.7-0.3,1.3-0.8,1.8-1.3c2.3-2.3,1.5-5.3-0.8-7.6
	S7.7,2.3,5.4,4.6s-2.7,6.6-0.8,9.3C7.9,19,13,24.1,18.1,27.5c2.7,1.8,7,1.5,9.3-0.8s1.5-5.3-0.8-7.6S21.3,15.8,18.9,18.2z"></path>
  </symbol>
  <symbol xmlns="http://www.w3.org/2000/svg" viewBox="0 0 64 64" id="location">
    <g id="Layer_57">
      <path d="M40.11,38.53A1.25,1.25,0,1,0,39.89,41c11.8,1.06,18.86,4.31,18.86,6.84,0,3-10.18,7.18-26.75,7.18S5.25,50.85,5.25,47.86c0-2.53,7.06-5.78,18.86-6.84a1.26,1.26,0,0,0,1.14-1.36,1.28,1.28,0,0,0-1.36-1.13c-10.22.92-21.14,3.85-21.14,9.33,0,6.28,15.07,9.68,29.25,9.68s29.25-3.4,29.25-9.68C61.25,42.38,50.33,39.45,40.11,38.53Z"></path>
      <path d="M27,24.21l3.74,23.84a1.24,1.24,0,0,0,2.46,0L37,24.21a9.58,9.58,0,1,0-9.94,0Zm5,15.58L29.73,25.33a9,9,0,0,0,4.54,0ZM32,9A7.08,7.08,0,1,1,24.92,16,7.09,7.09,0,0,1,32,9Z"></path>
    </g>
  </symbol>
</svg>